<svg
  width="26"
  height="38"
  viewBox="0 0 26 38"
  fill="#ffffff"
  xmlns="http://www.w3.org/2000/svg"

>
  <path d="M25.1973 26.1602C25.1973 28.097 24.709 29.9362 23.7324 31.6777C22.7559 33.403 21.234 34.8027 19.167 35.877C17.1162 36.9512 14.4632 37.4883 11.208 37.4883C9.5804 37.4883 8.14811 37.415 6.91113 37.2686C5.69043 37.1221 4.55111 36.8861 3.49316 36.5605C2.43522 36.2188 1.33659 35.7793 0.197266 35.2422V26.6484C2.13411 27.625 4.08724 28.3737 6.05664 28.8945C8.02604 29.3991 9.80827 29.6514 11.4033 29.6514C12.3636 29.6514 13.1449 29.5374 13.7471 29.3096C14.3656 29.0817 14.8213 28.7725 15.1143 28.3818C15.4072 27.9749 15.5537 27.5111 15.5537 26.9902C15.5537 26.3717 15.334 25.8509 14.8945 25.4277C14.4714 24.9883 13.7878 24.5326 12.8438 24.0605C11.8997 23.5885 10.6546 23.0026 9.1084 22.3027C7.79004 21.6842 6.59375 21.0495 5.51953 20.3984C4.46159 19.7474 3.55013 19.0068 2.78516 18.1768C2.03646 17.3304 1.45866 16.3457 1.05176 15.2227C0.644857 14.0996 0.441406 12.7731 0.441406 11.2432C0.441406 8.94824 1.00293 7.02767 2.12598 5.48145C3.2653 3.91895 4.84408 2.74707 6.8623 1.96582C8.89681 1.18457 11.2406 0.793945 13.8936 0.793945C16.221 0.793945 18.3125 1.05436 20.168 1.5752C22.0397 2.09603 23.7161 2.6901 25.1973 3.35742L22.2432 10.8037C20.7132 10.1038 19.2077 9.55046 17.7266 9.14355C16.2454 8.72038 14.8701 8.50879 13.6006 8.50879C12.7705 8.50879 12.0869 8.61458 11.5498 8.82617C11.029 9.02148 10.6383 9.29004 10.3779 9.63184C10.1338 9.97363 10.0117 10.3643 10.0117 10.8037C10.0117 11.3571 10.2233 11.8535 10.6465 12.293C11.0859 12.7324 11.8102 13.2126 12.8193 13.7334C13.8447 14.238 15.2363 14.8971 16.9941 15.7109C18.7357 16.4922 20.2168 17.3385 21.4375 18.25C22.6582 19.1452 23.5859 20.2275 24.2207 21.4971C24.8717 22.7503 25.1973 24.3047 25.1973 26.1602Z" />
</svg>